<svg version="1.0" xmlns="http://www.w3.org/2000/svg" width="236" height="236" viewBox="0 0 177 177"><path d="M43 28.7c-8.5 2.9-16.7 10-19.7 17.1-1.8 4.4-2 13.7-.3 18.7 2.7 8.4 13.3 19.7 30 32.1 5.2 3.9 14.1 11.7 19.7 17.2 5.5 5.6 10.8 10.2 11.7 10.2 1.8 0 2 1.7.6 5.4-1.3 3.5.8 9.6 3.6 10.7 2.9 1 6.1-1.3 6.9-5.1.4-1.9 0-4.4-1.3-7.3l-2-4.4 3.2-1.5c5.1-2.5 26.1-21.8 27.8-25.5.1-.5 3.6-3.2 7.5-6.1 9.2-6.8 18.5-16.9 21.9-23.7 4.1-8.5 3.4-18.7-1.8-26.2-3.4-5-7.6-8.4-13.8-11.2-9-4.1-16.4-2.1-28.4 7.7-11.4 9.3-10.2 8.9-13 3.5-3.2-6.4-5.9-8.7-10.3-8.7-5.2 0-7.7 3.4-7.1 9.6.6 5.4 1 5.6-8.6-2.4-12-10.1-18.9-12.7-26.6-10.1zm95.4 4.7c12.7 7.4 17.1 20.2 11.1 32.3-2.6 5.2-14.1 17.8-20.9 22.9-3.8 2.8-3.9 2.8-5 .9-.6-1-5.2-6.3-10.3-11.6-8.6-9.2-12-13.9-12.8-17.7-.1-1-.6-4-1-6.8l-.6-5.1 8-6.7c16.1-13.2 20.8-14.5 31.5-8.2zM53 31.6c3 .8 11.4 6.2 15.5 9.9 4.4 4 13.1 10.5 14 10.5.7 0 .4-2.6-1.3-9-1-4 .2-7.7 2.7-8.3 5.3-1.2 11.4 8.6 12.6 20.4.9 8.7 4.4 14.8 13.5 23.6 9.1 8.7 11.4 12.2 10.1 15.6-1.4 3.7-6.3 8.9-16.3 17.3-10.4 8.8-14.5 10.9-18.3 9.4-1.5-.6-7.3-5.6-12.8-11.2-5.6-5.5-14.7-13.5-20.2-17.7-19.9-15.1-27.9-25.8-27.8-37 0-6.2 2.5-12.1 6.5-15.7 3.1-2.9 9.6-6.8 13.3-8.2 3-1 3.8-1 8.5.4zm38.8 98.3c1.4 3.9.5 7.1-1.9 7.1-1.5 0-1.9-.7-1.9-3.4 0-6.7 2.1-8.7 3.8-3.7z"/><path d="M133.2 46.6c.3 3.6.6 3.9 3.2 3.9 1.6 0 3.1-.6 3.4-1.3.2-.7-.6-1.2-2.1-1.2-1.9 0-2.4-.5-2.3-2.2 0-1.1-.5-2.3-1.2-2.6-1-.3-1.3.6-1 3.4zm-17.5 2.1c-.3.4-.4 1.9-.3 3.3.2 3.1-1 4-5.1 4-2.4 0-3.1.4-2.7 1.4.3.9 1.6 1.3 3.2 1.2 4-.5 5.2.3 5.2 3.4 0 2.5-.3 2.7-3.5 2.5-2-.1-4 .4-4.6 1.1-1.2 1.5.4 2.1 4.9 1.9 2.9-.2 3.2 0 3.3 2.9.1 1.7.1 3.4 0 3.8 0 .5.6.8 1.4.8 1.1 0 1.5-1.1 1.5-4 0-3.6.2-3.9 2.3-3.6 1.2.3 2.5.5 2.9.5.4.1.8 1.5 1 3.3.4 4.1 3.1 5.2 2.8 1.2-.4-5.1-.1-5.4 3.5-5.4 2.5 0 3.5-.4 3.5-1.6 0-1.1-.8-1.5-2.7-1.4-4.9.3-5.2.2-4.4-2.7.6-2.2 1.3-2.7 4.1-2.7 5.3-.1 5.1-2.6-.2-2.6h-4.4l.3-4c.2-3-.1-4-1.2-4-1.1 0-1.5 1.1-1.5 4 0 3.9-.1 4-3.6 4s-3.5-.1-3.2-3.7c.3-3.3-1.3-5.6-2.5-3.6zm9.3 13.2c0 2.4-.4 2.7-2.9 2.7-2.4 0-3-.4-3.3-2.7-.4-2.2 0-2.9 1.6-3.1 3.4-.6 4.6.2 4.6 3.1zM45.9 48.2c-.1.7-.1 1.8 0 2.5.1.6-1.1 1.3-2.6 1.5-4 .4-3.4 2.2.9 2.6 3.8.3 5.1-1.1 4.4-5.2-.3-2.3-2.5-3.4-2.7-1.4zm8.1 8.4v4.6l-4.2-.3c-2.6-.2-4.3.1-4.6.9-.2.6.3 1.3 1.2 1.3.9.1 2.1.3 2.6.4.6.1 1.9.3 3 .4 1.5.1 2 .8 2 3.2 0 2.9-.2 3-3.7 2.7-2.9-.2-3.8.1-3.8 1.2 0 1 1.2 1.6 3.8 1.8 2 .2 3.7.9 3.8 1.5 0 .7.2 2.4.2 3.9.3 4.1 2.1 3.4 2.7-.9.4-3.4.8-3.8 3.6-4.1 3.1-.3 3.1-.2 3 3.9-.1 5.9 2.1 6.3 2.9.5l.7-4.6h4.4c3.2 0 4.4-.4 4.4-1.5S74.8 70 71.5 70c-4.3 0-4.5-.1-4.5-3 0-3 .2-3.2 5.4-3.4 1.6 0 3.1-.7 3.3-1.4.5-1.3.3-1.4-3.9-1.6-3.5-.2-4.1-.9-4.2-4.8-.1-2.2-.7-3.4-1.8-3.6-1.4-.3-1.5.4-1.1 3.7.3 2.3.2 4.2-.3 4.2-7.9 1-7.4 1.3-7.4-3.6 0-3.3-.4-4.5-1.5-4.5S54 53.2 54 56.6zm9.3 7.3c.4.1.7 1.4.7 3.1 0 2.8-.3 3-3.5 3s-3.5-.3-3.5-2.9c0-3 1.2-4 4-3.5.8.1 1.8.3 2.3.3zM73 83c0 2.9.4 4 1.5 4 .9 0 1.5-.9 1.5-2.4 0-1.8.6-2.6 2.2-2.8 4.1-.6 3.2-2.8-1.1-2.8H73v4zm37.5 8.5c-4.1 5.9-16.8 17-23.3 20.2-2.9 1.4-5.5 2.9-5.8 3.4-1.1 1.8 4.2.8 8.4-1.6 10.5-6 27.4-22.7 25.7-25.5-1-1.7-1.9-1.1-5 3.5zm45.7-14.3c-2.8 3.7-2.4 5.7 2.5 11 6.8 7.4 10.6 10.7 11.6 10.1.5-.3-1.6-3.1-4.7-6.2l-5.6-5.7 2.3-2.2 2.3-2.1 5.3 5.4c5.1 5.1 7.1 6.5 7.1 4.7 0-1.1-12.5-13.9-14.8-15.1-2.7-1.4-4.7-1.4-6 .1zM162 80c0 .4-.9 1.5-2 2.5-1.8 1.6-2 1.6-2.6.1-.8-2.1 1.3-4.7 3.2-3.9.8.3 1.4.8 1.4 1.3zM16.1 81.4c-1.8 1.4-5.2 4.2-7.4 6.3-2.3 2.1-5.1 3.8-6.2 3.8-1.1 0-2.1.8-2.3 1.9-.3 1.4 0 1.7 1.1 1.3 1-.4 3 .7 5.3 2.8 3.1 2.9 3.5 3.7 2.4 5-1 1.2-1 1.5.1 1.5 2.5 0 4.2-1.7 3.5-3.5-.4-1.2.7-2.9 3.8-5.8 6.5-6.3 9.8-11.5 8.5-13.8-1.3-2.6-4.9-2.4-8.8.5zm6.1 3.2c-.6 1.1-3.5 4.3-6.6 7.3-5.5 5.4-5.6 5.4-7.6 3.6l-2.1-1.9 4.8-4.4c6.2-5.7 10.5-8.4 11.6-7.3.5.5.4 1.7-.1 2.7zm123.6 3.5l-3.1 3 5.4 5.5c3 3.1 7.1 6.9 9.1 8.5l3.7 3 2.5-2.8c3.3-3.5 2.7-5.7-2.7-10.5-4.3-3.9-4.5-4.1-7.8-7.7-2.5-2.8-3.5-2.7-7.1 1zm6.2 1.3c0 .8-.7 2.2-1.6 3-1.2 1.3-1.8 1.3-2.9.3-1.1-1-1.1-1.5.2-3 1.9-2.1 4.3-2.2 4.3-.3zm9.8 9.7c1.5 2.2 1 4.9-1 4.9-1.5-.1-8.8-6.6-8.8-8 0-.5.8-1.3 1.7-1.9 1.9-1 5.4 1.2 8.1 5zM26.2 92.9c-9.4 7.5-12.2 12.8-8.1 15.4 2.8 1.8 7-.3 13-6.3s7.1-8.8 4.3-11.1c-2.7-2.2-4.2-1.9-9.2 2zM34 94c0 1.1-2 4-4.6 6.5-6 6-7.6 6.8-10 5-1.8-1.3-1.5-1.7 4.5-7.4C30.4 91.8 34 90.4 34 94zm104 1.4c0 1.5 16.4 17.6 18 17.6.5 0 1-.7 1-1.5s-.4-1.5-.8-1.5-4.4-3.6-8.7-8c-8.1-8.1-9.5-9.1-9.5-6.6zm-104.7 10c-7.5 7.7-8.6 10.2-5.5 12.8 2.1 1.9 4.9 1.5 6.8-.9 1.8-2.4 1.7-3.8-.1-5.7-2.1-2-2-2.3 2.3-6.7 4.4-4.4 4.8-4.5 7.4-2.2 1.5 1.4 1.8 1.4 1.8.1 0-1.6-3-4.8-4.5-4.8-.5 0-4.2 3.3-8.2 7.4zm-.5 8.9c.4 2.2-2.7 3.5-3.8 1.6-1-1.5.7-4.2 2.4-3.6.6.2 1.2 1.1 1.4 2zm97-10.8c-.7.7 14.2 15 16.4 15.8 2.1.8 6.7-2.8 6.4-5-.2-.9-1.3-2.4-2.6-3.5-2.2-1.8-2.3-1.8-5.3.1l-3 1.9-5-4.9c-5-4.8-5.9-5.4-6.9-4.4zm19.1 9.4c1.2.8 1.2 1.2.2 2.5-.8.9-1.9 1.6-2.6 1.6-1.8 0-2.6-2.5-1.2-3.9 1.3-1.3 1.8-1.3 3.6-.2zm-107 2.6c-4.1 4.2-7.5 8-7.7 8.5-.8 2.3 1.8.7 6.6-4.1 4.9-4.9 5.2-5 7.4-3.5 3 2.1 5.1 2 7.2-.3 2.3-2.5 1.3-5.9-2.1-7.2-1.3-.5-2.8-.9-3.2-.9-.5 0-4.1 3.4-8.2 7.5zm11.8-2.9c.9 2.4-1.8 3.6-3.9 1.7-1-.9-1.5-2-1.2-2.4.9-1.5 4.4-1 5.1.7zm71.3-3.5c0 .6.9 1.8 2.1 2.8 1.9 1.5 2 1.8.5 3-1.4 1.2-2 1.1-4-.8-2.9-2.7-4.7-1-2.1 1.9s5.4 3.4 7.6 1.4c1.8-1.6 2.1-1.5 7.4 3.5 3.3 3.1 6 4.9 6.7 4.5.8-.5-1.9-3.7-7.7-9.1-8.6-8.1-10.5-9.4-10.5-7.2zm-9.7 9.1c-1.2 1.3-2.3 2.9-2.5 3.6-.4 1.7 14.3 16.2 16.5 16.2 1.8 0 5.6-3.6 5.7-5.3 0-1.5-2.2-.6-3.9 1.4l-1.7 2.2-5.2-5-5.1-5 2.1-2.1c2.9-2.9 1.4-4.1-1.6-1.3-1.9 1.8-2.5 1.9-3.4.8-.9-1-.7-1.9.9-3.6 1.3-1.4 1.8-2.6 1.2-3.2-.6-.6-1.7-.1-3 1.3zm-58.9.7c-5.1 3.1-15.1 13.3-13.5 13.8.7.3 3.7-1.9 6.7-4.8l5.4-5.3 2.1 2.3 2.1 2.2-2.3 2.6c-1.3 1.5-3.7 3.8-5.3 5.3-1.6 1.5-2.6 3.3-2.3 4.1.3 1 2.9-1.1 8.1-6.5 8.1-8.5 9.7-12.4 5.7-14.6-2.6-1.4-3.1-1.3-6.7.9zm6.3 2.6c.1.5-.1 1.7-.7 2.5-.7 1.2-1.2 1.2-2.9-.4-1.1-1-1.8-2.3-1.5-2.8.7-1.2 4.6-.6 5.1.7zm-.9 11.7c-3.7 4-7.1 8.1-7.4 9.1-.6 2.1 3 6.7 5.3 6.7 1.9 0 1.6-1.4-.7-3.5-1.1-1-2-2.1-2-2.4 0-1 7.5-9.1 8.4-9.1.5 0 1.7.7 2.7 1.6 1 .9 1.9 1.1 2.3.5.4-.5-.3-1.8-1.4-2.9-1.8-1.7-1.9-2-.5-3.2 1.3-1.1 1.9-1 3.3.4 2 1.8 4.2 2.1 4.2.7 0-1.2-4.9-5.1-6.3-5.1-.6 0-4.2 3.3-7.9 7.2zm43.2-5c-1.1 1.2-2 2.9-2 3.8 0 1.5 14.8 17 16.3 17 1.9 0 .1-2.5-6.4-9-6.6-6.6-8.1-9.8-5.3-10.7.6-.2 4.6 3.1 8.9 7.4 5 5 7.9 7.3 8.3 6.5.5-1.5-14.7-17.2-16.6-17.2-.6 0-2 1-3.2 2.2z"/></svg>